<svg id="visual" viewBox="0 0 900 150" width="900" height="150" xmlns="http://www.w3.org/2000/svg" xmlns:xlink="http://www.w3.org/1999/xlink" version="1.1"><path d="M0 69L13.7 62.5C27.3 56 54.7 43 82 35.7C109.3 28.3 136.7 26.7 163.8 36C191 45.3 218 65.7 245.2 72.7C272.3 79.7 299.7 73.3 327 61.7C354.3 50 381.7 33 409 33.3C436.3 33.7 463.7 51.3 491 56.3C518.3 61.3 545.7 53.7 573 50.3C600.3 47 627.7 48 654.8 56C682 64 709 79 736.2 79.3C763.3 79.7 790.7 65.3 818 59.7C845.3 54 872.7 57 886.3 58.5L900 60L900 0L886.3 0C872.7 0 845.3 0 818 0C790.7 0 763.3 0 736.2 0C709 0 682 0 654.8 0C627.7 0 600.3 0 573 0C545.7 0 518.3 0 491 0C463.7 0 436.3 0 409 0C381.7 0 354.3 0 327 0C299.7 0 272.3 0 245.2 0C218 0 191 0 163.8 0C136.7 0 109.3 0 82 0C54.7 0 27.3 0 13.7 0L0 0Z" fill="#3b454e"></path><path d="M0 106L13.7 95.5C27.3 85 54.7 64 82 53.3C109.3 42.7 136.7 42.3 163.8 50.8C191 59.3 218 76.7 245.2 83.7C272.3 90.7 299.7 87.3 327 76.2C354.3 65 381.7 46 409 44.5C436.3 43 463.7 59 491 64C518.3 69 545.7 63 573 64C600.3 65 627.7 73 654.8 80.2C682 87.3 709 93.7 736.2 91.7C763.3 89.7 790.7 79.3 818 74.7C845.3 70 872.7 71 886.3 71.5L900 72L900 58L886.3 56.5C872.7 55 845.3 52 818 57.7C790.7 63.3 763.3 77.7 736.2 77.3C709 77 682 62 654.8 54C627.7 46 600.3 45 573 48.3C545.7 51.7 518.3 59.3 491 54.3C463.7 49.3 436.3 31.7 409 31.3C381.7 31 354.3 48 327 59.7C299.7 71.3 272.3 77.7 245.2 70.7C218 63.7 191 43.3 163.8 34C136.7 24.7 109.3 26.3 82 33.7C54.7 41 27.3 54 13.7 60.5L0 67Z" fill="#656d75"></path><path d="M0 123L13.7 112.8C27.3 102.7 54.7 82.3 82 74.3C109.3 66.3 136.7 70.7 163.8 81.3C191 92 218 109 245.2 118.7C272.3 128.3 299.7 130.7 327 119.3C354.3 108 381.7 83 409 79.5C436.3 76 463.7 94 491 102C518.3 110 545.7 108 573 105.3C600.3 102.7 627.7 99.3 654.8 102.8C682 106.3 709 116.7 736.2 118.7C763.3 120.7 790.7 114.3 818 112.7C845.3 111 872.7 114 886.3 115.5L900 117L900 70L886.3 69.5C872.7 69 845.3 68 818 72.7C790.7 77.3 763.3 87.7 736.2 89.7C709 91.7 682 85.3 654.8 78.2C627.7 71 600.3 63 573 62C545.7 61 518.3 67 491 62C463.7 57 436.3 41 409 42.5C381.7 44 354.3 63 327 74.2C299.7 85.3 272.3 88.7 245.2 81.7C218 74.7 191 57.3 163.8 48.8C136.7 40.3 109.3 40.7 82 51.3C54.7 62 27.3 83 13.7 93.5L0 104Z" fill="#91989f"></path><path d="M0 145L13.7 142.8C27.3 140.7 54.7 136.3 82 133.3C109.3 130.3 136.7 128.7 163.8 130.8C191 133 218 139 245.2 142C272.3 145 299.7 145 327 141.3C354.3 137.7 381.7 130.3 409 128.2C436.3 126 463.7 129 491 131.7C518.3 134.3 545.7 136.7 573 136.2C600.3 135.7 627.7 132.3 654.8 133.7C682 135 709 141 736.2 140.7C763.3 140.3 790.7 133.7 818 130.2C845.3 126.7 872.7 126.3 886.3 126.2L900 126L900 115L886.3 113.5C872.7 112 845.3 109 818 110.7C790.7 112.3 763.3 118.7 736.2 116.7C709 114.7 682 104.3 654.8 100.8C627.7 97.3 600.3 100.7 573 103.3C545.7 106 518.3 108 491 100C463.7 92 436.3 74 409 77.5C381.7 81 354.3 106 327 117.3C299.7 128.7 272.3 126.3 245.2 116.7C218 107 191 90 163.8 79.3C136.7 68.7 109.3 64.3 82 72.3C54.7 80.3 27.3 100.7 13.7 110.8L0 121Z" fill="#c0c5cb"></path><path d="M0 151L13.7 151C27.3 151 54.7 151 82 151C109.3 151 136.7 151 163.8 151C191 151 218 151 245.2 151C272.3 151 299.7 151 327 151C354.3 151 381.7 151 409 151C436.3 151 463.7 151 491 151C518.3 151 545.7 151 573 151C600.3 151 627.7 151 654.8 151C682 151 709 151 736.2 151C763.3 151 790.7 151 818 151C845.3 151 872.7 151 886.3 151L900 151L900 124L886.3 124.2C872.7 124.3 845.3 124.7 818 128.2C790.7 131.7 763.3 138.3 736.2 138.7C709 139 682 133 654.8 131.7C627.7 130.3 600.3 133.7 573 134.2C545.7 134.7 518.3 132.3 491 129.7C463.7 127 436.3 124 409 126.2C381.7 128.3 354.3 135.7 327 139.3C299.7 143 272.3 143 245.2 140C218 137 191 131 163.8 128.8C136.7 126.7 109.3 128.3 82 131.3C54.7 134.3 27.3 138.7 13.7 140.8L0 143Z" fill="#f1f5f9"></path></svg>