<svg id="visual" viewBox="0 0 900 150" width="900" height="150" xmlns="http://www.w3.org/2000/svg" xmlns:xlink="http://www.w3.org/1999/xlink" version="1.1"><path d="M0 30L11.5 29C23 28 46 26 69 25C92 24 115 24 138.2 30.3C161.3 36.7 184.7 49.3 207.8 54.5C231 59.7 254 57.3 277 54.5C300 51.7 323 48.3 346 42.3C369 36.3 392 27.7 415.2 26.8C438.3 26 461.7 33 484.8 40.2C508 47.3 531 54.7 554 53.7C577 52.7 600 43.3 623 42C646 40.7 669 47.3 692.2 51.3C715.3 55.3 738.7 56.7 761.8 56.7C785 56.7 808 55.3 831 53.8C854 52.3 877 50.7 888.5 49.8L900 49L900 0L888.5 0C877 0 854 0 831 0C808 0 785 0 761.8 0C738.7 0 715.3 0 692.2 0C669 0 646 0 623 0C600 0 577 0 554 0C531 0 508 0 484.8 0C461.7 0 438.3 0 415.2 0C392 0 369 0 346 0C323 0 300 0 277 0C254 0 231 0 207.8 0C184.7 0 161.3 0 138.2 0C115 0 92 0 69 0C46 0 23 0 11.5 0L0 0Z" fill="#3b454e"></path><path d="M0 93L11.5 90.2C23 87.3 46 81.7 69 78.7C92 75.7 115 75.3 138.2 79.7C161.3 84 184.7 93 207.8 96.7C231 100.3 254 98.7 277 97.8C300 97 323 97 346 93.5C369 90 392 83 415.2 81.8C438.3 80.7 461.7 85.3 484.8 88.3C508 91.3 531 92.7 554 91.7C577 90.7 600 87.3 623 85.2C646 83 669 82 692.2 84.2C715.3 86.3 738.7 91.7 761.8 91.8C785 92 808 87 831 83.3C854 79.7 877 77.3 888.5 76.2L900 75L900 47L888.5 47.8C877 48.7 854 50.3 831 51.8C808 53.3 785 54.7 761.8 54.7C738.7 54.7 715.3 53.3 692.2 49.3C669 45.3 646 38.7 623 40C600 41.3 577 50.7 554 51.7C531 52.7 508 45.3 484.8 38.2C461.7 31 438.3 24 415.2 24.8C392 25.7 369 34.3 346 40.3C323 46.3 300 49.7 277 52.5C254 55.3 231 57.7 207.8 52.5C184.7 47.3 161.3 34.7 138.2 28.3C115 22 92 22 69 23C46 24 23 26 11.5 27L0 28Z" fill="#656d75"></path><path d="M0 104L11.5 103.3C23 102.7 46 101.3 69 101.7C92 102 115 104 138.2 106.5C161.3 109 184.7 112 207.8 112C231 112 254 109 277 110.8C300 112.7 323 119.3 346 116.8C369 114.3 392 102.7 415.2 99.8C438.3 97 461.7 103 484.8 105.8C508 108.7 531 108.3 554 106.2C577 104 600 100 623 101C646 102 669 108 692.2 113.5C715.3 119 738.7 124 761.8 122.3C785 120.7 808 112.3 831 105.8C854 99.3 877 94.7 888.5 92.3L900 90L900 73L888.5 74.2C877 75.3 854 77.7 831 81.3C808 85 785 90 761.8 89.8C738.7 89.7 715.3 84.3 692.2 82.2C669 80 646 81 623 83.2C600 85.3 577 88.7 554 89.7C531 90.7 508 89.3 484.8 86.3C461.7 83.3 438.3 78.7 415.2 79.8C392 81 369 88 346 91.5C323 95 300 95 277 95.8C254 96.7 231 98.3 207.8 94.7C184.7 91 161.3 82 138.2 77.7C115 73.3 92 73.7 69 76.7C46 79.7 23 85.3 11.5 88.2L0 91Z" fill="#91989f"></path><path d="M0 129L11.5 128C23 127 46 125 69 123.7C92 122.3 115 121.7 138.2 123.8C161.3 126 184.7 131 207.8 132.8C231 134.7 254 133.3 277 133.2C300 133 323 134 346 130.7C369 127.3 392 119.7 415.2 119.3C438.3 119 461.7 126 484.8 129C508 132 531 131 554 126.5C577 122 600 114 623 113.3C646 112.7 669 119.3 692.2 124.7C715.3 130 738.7 134 761.8 132.7C785 131.3 808 124.7 831 120.8C854 117 877 116 888.5 115.5L900 115L900 88L888.5 90.3C877 92.7 854 97.3 831 103.8C808 110.3 785 118.7 761.8 120.3C738.7 122 715.3 117 692.2 111.5C669 106 646 100 623 99C600 98 577 102 554 104.2C531 106.3 508 106.7 484.8 103.8C461.7 101 438.3 95 415.2 97.8C392 100.7 369 112.3 346 114.8C323 117.3 300 110.7 277 108.8C254 107 231 110 207.8 110C184.7 110 161.3 107 138.2 104.5C115 102 92 100 69 99.7C46 99.3 23 100.7 11.5 101.3L0 102Z" fill="#c0c5cb"></path><path d="M0 151L11.5 151C23 151 46 151 69 151C92 151 115 151 138.2 151C161.3 151 184.7 151 207.8 151C231 151 254 151 277 151C300 151 323 151 346 151C369 151 392 151 415.2 151C438.3 151 461.7 151 484.8 151C508 151 531 151 554 151C577 151 600 151 623 151C646 151 669 151 692.2 151C715.3 151 738.7 151 761.8 151C785 151 808 151 831 151C854 151 877 151 888.5 151L900 151L900 113L888.5 113.5C877 114 854 115 831 118.8C808 122.7 785 129.3 761.8 130.7C738.7 132 715.3 128 692.2 122.7C669 117.3 646 110.7 623 111.3C600 112 577 120 554 124.5C531 129 508 130 484.8 127C461.7 124 438.3 117 415.2 117.3C392 117.7 369 125.3 346 128.7C323 132 300 131 277 131.2C254 131.3 231 132.7 207.8 130.8C184.7 129 161.3 124 138.2 121.8C115 119.7 92 120.3 69 121.7C46 123 23 125 11.5 126L0 127Z" fill="#f1f5f9"></path></svg>