<svg width="1440" height="204" viewBox="0 0 1440 204" fill="none" xmlns="http://www.w3.org/2000/svg">
<path d="M0 112.8L18.4 108.32C36.8 103.68 73.6 94.7199 110.4 89.9199C147.2 85.1199 184 84.4799 221.12 91.5199C258.08 98.3999 295.52 112.8 332.48 118.72C369.6 124.48 406.4 121.92 443.2 120.48C480 119.2 516.8 119.2 553.6 113.6C590.4 108 627.2 96.7999 664.32 94.8799C701.28 93.1199 738.72 100.48 775.68 105.28C812.8 110.08 849.6 112.32 886.4 110.72C923.2 109.12 960 103.68 996.8 100.32C1033.6 96.7999 1070.4 95.1999 1107.52 98.7199C1144.48 102.08 1181.92 110.72 1218.88 110.88C1256 111.2 1292.8 103.2 1329.6 97.2799C1366.4 91.5199 1403.2 87.6799 1421.6 85.9199L1440 83.9999V39.1999L1421.6 40.4799C1403.2 41.9199 1366.4 44.4799 1329.6 46.8799C1292.8 49.2799 1256 51.5199 1218.88 51.5199C1181.92 51.5199 1144.48 49.2799 1107.52 42.8799C1070.4 36.4799 1033.6 25.9199 996.8 27.9999C960 30.0799 923.2 45.1199 886.4 46.7199C849.6 48.3199 812.8 36.4799 775.68 25.1199C738.72 13.5999 701.28 2.39988 664.32 3.67988C627.2 5.11988 590.4 18.8799 553.6 28.4799C516.8 38.0799 480 43.5199 443.2 47.9999C406.4 52.4799 369.6 56.3199 332.48 47.9999C295.52 39.6799 258.08 19.5199 221.12 9.27988C184 -0.800119 147.2 -0.800118 110.4 0.799882C73.6 2.39988 36.8 5.59988 18.4 7.19988L0 8.79988V112.8Z" fill="#656D75"/>
<path d="M0 130.4L18.4 129.28C36.8 128.32 73.6 126.08 110.4 126.72C147.2 127.2 184 130.4 221.12 134.4C258.08 138.4 295.52 143.2 332.48 143.2C369.6 143.2 406.4 138.4 443.2 141.28C480 144.32 516.8 154.88 553.6 150.88C590.4 146.88 627.2 128.32 664.32 123.68C701.28 119.2 738.72 128.8 775.68 133.28C812.8 137.92 849.6 137.28 886.4 133.92C923.2 130.4 960 124 996.8 125.6C1033.6 127.2 1070.4 136.8 1107.52 145.6C1144.48 154.4 1181.92 162.4 1218.88 159.68C1256 157.12 1292.8 143.68 1329.6 133.28C1366.4 122.88 1403.2 115.52 1421.6 111.68L1440 108V80.8L1421.6 82.72C1403.2 84.48 1366.4 88.3201 1329.6 94.0801C1292.8 100 1256 108 1218.88 107.68C1181.92 107.52 1144.48 98.88 1107.52 95.52C1070.4 92 1033.6 93.6 996.8 97.12C960 100.48 923.2 105.92 886.4 107.52C849.6 109.12 812.8 106.88 775.68 102.08C738.72 97.2801 701.28 89.9201 664.32 91.6801C627.2 93.6001 590.4 104.8 553.6 110.4C516.8 116 480 116 443.2 117.28C406.4 118.72 369.6 121.28 332.48 115.52C295.52 109.6 258.08 95.2 221.12 88.32C184 81.28 147.2 81.92 110.4 86.72C73.6 91.52 36.8 100.48 18.4 105.12L0 109.6V130.4Z" fill="#91989F"/>
<path d="M0 170.4L18.4 168.8C36.8 167.2 73.6 164 110.4 161.92C147.2 159.68 184 158.72 221.12 162.08C258.08 165.6 295.52 173.6 332.48 176.48C369.6 179.52 406.4 177.28 443.2 177.12C480 176.8 516.8 178.4 553.6 173.12C590.4 167.68 627.2 155.52 664.32 154.88C701.28 154.4 738.72 165.6 775.68 170.4C812.8 175.2 849.6 173.6 886.4 166.4C923.2 159.2 960 146.4 996.8 145.28C1033.6 144.32 1070.4 154.88 1107.52 163.52C1144.48 172 1181.92 178.4 1218.88 176.32C1256 174.08 1292.8 163.52 1329.6 157.28C1366.4 151.2 1403.2 149.6 1421.6 148.8L1440 148V104.8L1421.6 108.48C1403.2 112.32 1366.4 119.68 1329.6 130.08C1292.8 140.48 1256 153.92 1218.88 156.48C1181.92 159.2 1144.48 151.2 1107.52 142.4C1070.4 133.6 1033.6 124 996.8 122.4C960 120.8 923.2 127.2 886.4 130.72C849.6 134.08 812.8 134.72 775.68 130.08C738.72 125.6 701.28 116 664.32 120.48C627.2 125.12 590.4 143.68 553.6 147.68C516.8 151.68 480 141.12 443.2 138.08C406.4 135.2 369.6 140 332.48 140C295.52 140 258.08 135.2 221.12 131.2C184 127.2 147.2 124 110.4 123.52C73.6 122.88 36.8 125.12 18.4 126.08L0 127.2V170.4Z" fill="#C0C5CB"/>
<path d="M0 205.6H18.4C36.8 205.6 73.6 205.6 110.4 205.6C147.2 205.6 184 205.6 221.12 205.6C258.08 205.6 295.52 205.6 332.48 205.6C369.6 205.6 406.4 205.6 443.2 205.6C480 205.6 516.8 205.6 553.6 205.6C590.4 205.6 627.2 205.6 664.32 205.6C701.28 205.6 738.72 205.6 775.68 205.6C812.8 205.6 849.6 205.6 886.4 205.6C923.2 205.6 960 205.6 996.8 205.6C1033.6 205.6 1070.4 205.6 1107.52 205.6C1144.48 205.6 1181.92 205.6 1218.88 205.6C1256 205.6 1292.8 205.6 1329.6 205.6C1366.4 205.6 1403.2 205.6 1421.6 205.6H1440V144.8L1421.6 145.6C1403.2 146.4 1366.4 148 1329.6 154.08C1292.8 160.32 1256 170.88 1218.88 173.12C1181.92 175.2 1144.48 168.8 1107.52 160.32C1070.4 151.68 1033.6 141.12 996.8 142.08C960 143.2 923.2 156 886.4 163.2C849.6 170.4 812.8 172 775.68 167.2C738.72 162.4 701.28 151.2 664.32 151.68C627.2 152.32 590.4 164.48 553.6 169.92C516.8 175.2 480 173.6 443.2 173.92C406.4 174.08 369.6 176.32 332.48 173.28C295.52 170.4 258.08 162.4 221.12 158.88C184 155.52 147.2 156.48 110.4 158.72C73.6 160.8 36.8 164 18.4 165.6L0 167.2V205.6Z" fill="#F1F5F9"/>
</svg>
