<svg id="visual" viewBox="0 0 900 150" width="900" height="150" xmlns="http://www.w3.org/2000/svg" xmlns:xlink="http://www.w3.org/1999/xlink" version="1.1"><rect x="0" y="0" width="900" height="150" fill="#3B454E"></rect><path d="M0 25L21.5 28C43 31 86 37 128.8 37.3C171.7 37.7 214.3 32.3 257.2 36C300 39.7 343 52.3 385.8 53C428.7 53.7 471.3 42.3 514.2 37.8C557 33.3 600 35.7 642.8 40.3C685.7 45 728.3 52 771.2 53.3C814 54.7 857 50.3 878.5 48.2L900 46L900 151L878.5 151C857 151 814 151 771.2 151C728.3 151 685.7 151 642.8 151C600 151 557 151 514.2 151C471.3 151 428.7 151 385.8 151C343 151 300 151 257.2 151C214.3 151 171.7 151 128.8 151C86 151 43 151 21.5 151L0 151Z" fill="#686c74"></path><path d="M0 89L21.5 83.8C43 78.7 86 68.3 128.8 64.5C171.7 60.7 214.3 63.3 257.2 66.7C300 70 343 74 385.8 75.7C428.7 77.3 471.3 76.7 514.2 77.3C557 78 600 80 642.8 75.5C685.7 71 728.3 60 771.2 60C814 60 857 71 878.5 76.5L900 82L900 151L878.5 151C857 151 814 151 771.2 151C728.3 151 685.7 151 642.8 151C600 151 557 151 514.2 151C471.3 151 428.7 151 385.8 151C343 151 300 151 257.2 151C214.3 151 171.7 151 128.8 151C86 151 43 151 21.5 151L0 151Z" fill="#888c93"></path><path d="M0 71L21.5 75.3C43 79.7 86 88.3 128.8 93.2C171.7 98 214.3 99 257.2 96.5C300 94 343 88 385.8 85.3C428.7 82.7 471.3 83.3 514.2 81.8C557 80.3 600 76.7 642.8 74.2C685.7 71.7 728.3 70.3 771.2 73.2C814 76 857 83 878.5 86.5L900 90L900 151L878.5 151C857 151 814 151 771.2 151C728.3 151 685.7 151 642.8 151C600 151 557 151 514.2 151C471.3 151 428.7 151 385.8 151C343 151 300 151 257.2 151C214.3 151 171.7 151 128.8 151C86 151 43 151 21.5 151L0 151Z" fill="#aaaeb4"></path><path d="M0 99L21.5 97.7C43 96.3 86 93.7 128.8 92.3C171.7 91 214.3 91 257.2 91.8C300 92.7 343 94.3 385.8 97.7C428.7 101 471.3 106 514.2 107.2C557 108.3 600 105.7 642.8 104.8C685.7 104 728.3 105 771.2 104.8C814 104.7 857 103.3 878.5 102.7L900 102L900 151L878.5 151C857 151 814 151 771.2 151C728.3 151 685.7 151 642.8 151C600 151 557 151 514.2 151C471.3 151 428.7 151 385.8 151C343 151 300 151 257.2 151C214.3 151 171.7 151 128.8 151C86 151 43 151 21.5 151L0 151Z" fill="#cdd1d6"></path><path d="M0 117L21.5 117.7C43 118.3 86 119.7 128.8 119C171.7 118.3 214.3 115.7 257.2 116.5C300 117.3 343 121.7 385.8 125.5C428.7 129.3 471.3 132.7 514.2 133C557 133.3 600 130.7 642.8 129.8C685.7 129 728.3 130 771.2 130.3C814 130.7 857 130.3 878.5 130.2L900 130L900 151L878.5 151C857 151 814 151 771.2 151C728.3 151 685.7 151 642.8 151C600 151 557 151 514.2 151C471.3 151 428.7 151 385.8 151C343 151 300 151 257.2 151C214.3 151 171.7 151 128.8 151C86 151 43 151 21.5 151L0 151Z" fill="#f1f5f9"></path></svg>